<svg xmlns="http://www.w3.org/2000/svg" xmlns:xlink="http://www.w3.org/1999/xlink"><defs>
<clipPath id="clip0_2_11851">
<rect width="40" height="40" fill="white" transform="translate(0.0012207)"/>
</clipPath>

<radialGradient id="paint0_radial_2_11843" cx="0" cy="0" r="1" gradientUnits="userSpaceOnUse" gradientTransform="translate(10.7688 42.7272) rotate(-90) scale(39.039 36.3192)">
<stop stop-color="#FFDD55"/>
<stop offset="0.1" stop-color="#FFDD55"/>
<stop offset="0.5" stop-color="#FF543E"/>
<stop offset="1" stop-color="#C837AB"/>
</radialGradient>
<radialGradient id="paint1_radial_2_11843" cx="0" cy="0" r="1" gradientUnits="userSpaceOnUse" gradientTransform="translate(-6.2972 3.14037) rotate(78.6776) scale(17.4508 71.951)">
<stop stop-color="#3771C8"/>
<stop offset="0.128" stop-color="#3771C8"/>
<stop offset="1" stop-color="#6600FF" stop-opacity="0"/>
</radialGradient>

<clipPath id="clip0_2_11847">
<rect width="40" height="40" fill="white" transform="translate(0.00121307)"/>
</clipPath>
</defs><symbol id="icon-chevron-right" viewBox="0 0 24 24">
<path d="M9 18L15 12L9 6" stroke="#3A3A3A" stroke-width="2" stroke-linecap="round" stroke-linejoin="round"/>
</symbol><symbol id="icon-close" viewBox="0 0 20 20"><path d="M.293 18.291a1 1 0 101.414 1.414L10 11.413l8.292 8.292a1 1 0 101.414-1.414l-8.292-8.292 8.292-8.292A1 1 0 1018.291.293L9.999 8.585 1.707.293A1 1 0 10.293 1.707L8.585 10 .293 18.291z"/></symbol><symbol id="icon-fb" viewBox="0 0 41 40">
<g clip-path="url(#clip0_2_11851)">
<path d="M37.1701 39.3107C38.3536 39.3107 39.2974 38.3515 39.2974 37.1825V2.81759C39.2974 1.63363 38.3386 0.689453 37.1701 0.689453H2.81802C1.64948 0.689453 0.690674 1.64861 0.690674 2.81759V37.1825C0.690674 38.3665 1.64948 39.3107 2.81802 39.3107H37.1701Z" fill="#157DC3"/>
<path d="M27.3276 39.3108V24.3539H32.3463L33.0954 18.524H27.3276V14.8073C27.3276 13.1138 27.792 11.9748 30.219 11.9748H33.3051V6.74433C32.7658 6.6694 30.9381 6.51953 28.8107 6.51953C24.3613 6.51953 21.3201 9.23216 21.3201 14.2228V18.524H16.2864V24.3539H21.3201V39.3108H27.3276Z" fill="white"/>
</g>

</symbol><symbol id="icon-instagram" viewBox="0 0 41 40">
<path d="M20.0098 0.302734C11.785 0.302734 9.37954 0.311219 8.91196 0.350007C7.22408 0.49031 6.17378 0.756068 5.02954 1.32576C4.14772 1.76364 3.45226 2.27122 2.7659 2.98273C1.5159 4.28031 0.758324 5.87667 0.484081 7.77425C0.350748 8.69546 0.31196 8.88334 0.304081 13.5888C0.301051 15.1573 0.304081 17.2215 0.304081 19.9903C0.304081 28.2085 0.313172 30.6115 0.352566 31.0782C0.48893 32.7206 0.746505 33.7539 1.29196 34.8843C2.33438 37.0479 4.32529 38.6721 6.67075 39.2782C7.48287 39.4873 8.37984 39.6024 9.53135 39.657C10.0192 39.6782 14.992 39.6933 19.9677 39.6933C24.9435 39.6933 29.9192 39.6873 30.395 39.663C31.7283 39.6003 32.5026 39.4964 33.3586 39.2752C35.7192 38.6661 37.6738 37.0661 38.7374 34.8721C39.2723 33.7691 39.5435 32.6964 39.6662 31.1397C39.6929 30.8003 39.7041 25.3891 39.7041 19.9852C39.7041 14.5803 39.692 9.1791 39.6653 8.8397C39.5411 7.25789 39.2698 6.19425 38.7177 5.07001C38.2647 4.1497 37.7617 3.46243 37.0314 2.7597C35.728 1.51486 34.1341 0.75728 32.2347 0.48334C31.3144 0.35031 31.1311 0.310916 26.422 0.302734H20.0098Z" fill="url(#paint0_radial_2_11843)"/>
<path d="M20.0098 0.302734C11.785 0.302734 9.37954 0.311219 8.91196 0.350007C7.22408 0.49031 6.17378 0.756068 5.02954 1.32576C4.14772 1.76364 3.45226 2.27122 2.7659 2.98273C1.5159 4.28031 0.758324 5.87667 0.484081 7.77425C0.350748 8.69546 0.31196 8.88334 0.304081 13.5888C0.301051 15.1573 0.304081 17.2215 0.304081 19.9903C0.304081 28.2085 0.313172 30.6115 0.352566 31.0782C0.48893 32.7206 0.746505 33.7539 1.29196 34.8843C2.33438 37.0479 4.32529 38.6721 6.67075 39.2782C7.48287 39.4873 8.37984 39.6024 9.53135 39.657C10.0192 39.6782 14.992 39.6933 19.9677 39.6933C24.9435 39.6933 29.9192 39.6873 30.395 39.663C31.7283 39.6003 32.5026 39.4964 33.3586 39.2752C35.7192 38.6661 37.6738 37.0661 38.7374 34.8721C39.2723 33.7691 39.5435 32.6964 39.6662 31.1397C39.6929 30.8003 39.7041 25.3891 39.7041 19.9852C39.7041 14.5803 39.692 9.1791 39.6653 8.8397C39.5411 7.25789 39.2698 6.19425 38.7177 5.07001C38.2647 4.1497 37.7617 3.46243 37.0314 2.7597C35.728 1.51486 34.1341 0.75728 32.2347 0.48334C31.3144 0.35031 31.1311 0.310916 26.422 0.302734H20.0098Z" fill="url(#paint1_radial_2_11843)"/>
<path d="M20.0017 5.45459C16.0514 5.45459 15.5557 5.47186 14.0042 5.54247C12.4557 5.61338 11.3987 5.85853 10.4739 6.21823C9.5172 6.58974 8.70568 7.08671 7.8972 7.8955C7.08811 8.70398 6.59114 9.5155 6.21841 10.4719C5.85781 11.397 5.61235 12.4543 5.54265 14.0022C5.47326 15.5537 5.45508 16.0497 5.45508 20C5.45508 23.9503 5.47265 24.4446 5.54296 25.9961C5.61417 27.5446 5.85932 28.6016 6.21871 29.5264C6.59053 30.4831 7.0875 31.2946 7.89629 32.1031C8.70447 32.9122 9.51599 33.4103 10.472 33.7819C11.3975 34.1416 12.4548 34.3867 14.003 34.4576C15.5545 34.5282 16.0499 34.5455 19.9999 34.5455C23.9505 34.5455 24.4448 34.5282 25.9963 34.4576C27.5448 34.3867 28.603 34.1416 29.5284 33.7819C30.4848 33.4103 31.2951 32.9122 32.1033 32.1031C32.9124 31.2946 33.4093 30.4831 33.782 29.5267C34.1396 28.6016 34.3851 27.5443 34.4578 25.9964C34.5275 24.4449 34.5457 23.9503 34.5457 20C34.5457 16.0497 34.5275 15.554 34.4578 14.0025C34.3851 12.454 34.1396 11.397 33.782 10.4722C33.4093 9.5155 32.9124 8.70398 32.1033 7.8955C31.2942 7.08641 30.4851 6.58944 29.5275 6.21823C28.6002 5.85853 27.5427 5.61338 25.9942 5.54247C24.4427 5.47186 23.9487 5.45459 19.9972 5.45459H20.0017ZM18.6969 8.0758C19.0842 8.0752 19.5163 8.0758 20.0017 8.0758C23.8854 8.0758 24.3457 8.08974 25.8793 8.15944C27.2975 8.22429 28.0672 8.46126 28.5799 8.66035C29.2587 8.92398 29.7427 9.23914 30.2514 9.74823C30.7605 10.2573 31.0757 10.7422 31.3399 11.421C31.539 11.9331 31.7763 12.7028 31.8408 14.121C31.9105 15.6543 31.9257 16.1149 31.9257 19.9967C31.9257 23.8785 31.9105 24.3391 31.8408 25.8725C31.776 27.2907 31.539 28.0603 31.3399 28.5725C31.0763 29.2513 30.7605 29.7346 30.2514 30.2434C29.7424 30.7525 29.259 31.0676 28.5799 31.3313C28.0678 31.5313 27.2975 31.7676 25.8793 31.8325C24.346 31.9022 23.8854 31.9173 20.0017 31.9173C16.1178 31.9173 15.6575 31.9022 14.1242 31.8325C12.706 31.767 11.9363 31.53 11.4233 31.331C10.7445 31.0673 10.2596 30.7522 9.75053 30.2431C9.24144 29.734 8.92629 29.2503 8.66205 28.5713C8.46296 28.0591 8.22568 27.2894 8.16114 25.8713C8.09144 24.3379 8.0775 23.8773 8.0775 19.9931C8.0775 16.1088 8.09144 15.6507 8.16114 14.1173C8.22599 12.6991 8.46296 11.9294 8.66205 11.4167C8.92568 10.7379 9.24144 10.2531 9.75053 9.74398C10.2596 9.23489 10.7445 8.91974 11.4233 8.6555C11.936 8.4555 12.706 8.21914 14.1242 8.15398C15.466 8.09338 15.986 8.0752 18.6969 8.07217V8.0758ZM27.766 10.491C26.8024 10.491 26.0205 11.2719 26.0205 12.2358C26.0205 13.1994 26.8024 13.9813 27.766 13.9813C28.7296 13.9813 29.5114 13.1994 29.5114 12.2358C29.5114 11.2722 28.7296 10.4903 27.766 10.4903V10.491ZM20.0017 12.5303C15.8766 12.5303 12.532 15.8749 12.532 20C12.532 24.1252 15.8766 27.4682 20.0017 27.4682C24.1269 27.4682 27.4702 24.1252 27.4702 20C27.4702 15.8749 24.1266 12.5303 20.0014 12.5303H20.0017ZM20.0017 15.1516C22.6793 15.1516 24.8502 17.3222 24.8502 20C24.8502 22.6776 22.6793 24.8485 20.0017 24.8485C17.3239 24.8485 15.1533 22.6776 15.1533 20C15.1533 17.3222 17.3239 15.1516 20.0017 15.1516Z" fill="white"/>

</symbol><symbol id="icon-telegramm" viewBox="0 0 40 40">
<circle cx="20" cy="20" r="20" fill="#2F89CE"/>
<path d="M9.3507 20.3741L13.9488 22.0886L15.7413 27.8557C15.8192 28.2454 16.2868 28.3233 16.5985 28.0895L19.1703 25.9853C19.4041 25.7515 19.7938 25.7515 20.1055 25.9853L24.7036 29.3364C25.0154 29.5702 25.483 29.4144 25.5609 29.0247L28.99 12.6587C29.0679 12.269 28.6782 11.8793 28.2886 12.0352L9.3507 19.3609C8.8831 19.5168 8.8831 20.2182 9.3507 20.3741ZM15.5075 21.2313L24.5477 15.6981C24.7036 15.6201 24.8595 15.8539 24.7036 15.9319L17.2999 22.868C17.0661 23.1018 16.8323 23.4135 16.8323 23.8032L16.5985 25.6736C16.5985 25.9074 16.2089 25.9853 16.1309 25.6736L15.1957 22.2445C14.9619 21.8548 15.1178 21.3872 15.5075 21.2313Z" fill="white"/>
</symbol><symbol id="icon-vk" viewBox="0 0 41 40">
<g clip-path="url(#clip0_2_11847)">
<path fill-rule="evenodd" clip-rule="evenodd" d="M13.8679 0H26.1345C37.3345 0 40.0012 2.66667 40.0012 13.8667V26.1333C40.0012 37.3333 37.3345 40 26.1345 40H13.8679C2.66788 40 0.00121307 37.3333 0.00121307 26.1333V13.8667C0.00121307 2.66667 2.66788 0 13.8679 0Z" fill="#2787F5"/>
<path fill-rule="evenodd" clip-rule="evenodd" d="M32.7589 13.7801C32.9442 13.1621 32.7589 12.708 31.8769 12.708H28.9602C28.2186 12.708 27.8767 13.1003 27.6913 13.5329C27.6913 13.5329 26.208 17.1482 24.1069 19.4966C23.4271 20.1764 23.118 20.3927 22.7472 20.3927C22.5619 20.3927 22.2935 20.1764 22.2935 19.5584V13.7801C22.2935 13.0385 22.0783 12.708 21.4602 12.708H16.8769C16.4134 12.708 16.1347 13.0522 16.1347 13.3784C16.1347 14.0815 17.1853 14.2436 17.2935 16.2212V20.5163C17.2935 21.458 17.1235 21.6287 16.7527 21.6287C15.7639 21.6287 13.3587 17.9973 11.9322 13.8419C11.6527 13.0343 11.3723 12.708 10.6269 12.708H7.71021C6.87687 12.708 6.7102 13.1003 6.7102 13.5329C6.7102 14.3054 7.69901 18.137 11.3143 23.2046C13.7244 26.6654 17.1202 28.5413 20.2102 28.5413C22.0642 28.5413 22.2935 28.1247 22.2935 27.407V24.7913C22.2935 23.958 22.4692 23.7917 23.0563 23.7917C23.4889 23.7917 24.2305 24.008 25.9609 25.6766C27.9385 27.6542 28.2645 28.5413 29.3769 28.5413H32.2935C33.1269 28.5413 33.5435 28.1247 33.3032 27.3024C33.0401 26.4829 32.0959 25.2939 30.8431 23.8844C30.1633 23.081 29.1436 22.2158 28.8346 21.7832C28.402 21.227 28.5256 20.9798 28.8346 20.4854C28.8346 20.4854 32.3881 15.4796 32.7589 13.7801Z" fill="white"/>
</g>

</symbol></svg>