<svg width="41" height="40" viewBox="0 0 41 40" fill="none" xmlns="http://www.w3.org/2000/svg">
<g clip-path="url(#clip0_2_11847)">
<path fill-rule="evenodd" clip-rule="evenodd" d="M13.8679 0H26.1345C37.3345 0 40.0012 2.66667 40.0012 13.8667V26.1333C40.0012 37.3333 37.3345 40 26.1345 40H13.8679C2.66788 40 0.00121307 37.3333 0.00121307 26.1333V13.8667C0.00121307 2.66667 2.66788 0 13.8679 0Z" fill="#2787F5"/>
<path fill-rule="evenodd" clip-rule="evenodd" d="M32.7589 13.7801C32.9442 13.1621 32.7589 12.708 31.8769 12.708H28.9602C28.2186 12.708 27.8767 13.1003 27.6913 13.5329C27.6913 13.5329 26.208 17.1482 24.1069 19.4966C23.4271 20.1764 23.118 20.3927 22.7472 20.3927C22.5619 20.3927 22.2935 20.1764 22.2935 19.5584V13.7801C22.2935 13.0385 22.0783 12.708 21.4602 12.708H16.8769C16.4134 12.708 16.1347 13.0522 16.1347 13.3784C16.1347 14.0815 17.1853 14.2436 17.2935 16.2212V20.5163C17.2935 21.458 17.1235 21.6287 16.7527 21.6287C15.7639 21.6287 13.3587 17.9973 11.9322 13.8419C11.6527 13.0343 11.3723 12.708 10.6269 12.708H7.71021C6.87687 12.708 6.7102 13.1003 6.7102 13.5329C6.7102 14.3054 7.69901 18.137 11.3143 23.2046C13.7244 26.6654 17.1202 28.5413 20.2102 28.5413C22.0642 28.5413 22.2935 28.1247 22.2935 27.407V24.7913C22.2935 23.958 22.4692 23.7917 23.0563 23.7917C23.4889 23.7917 24.2305 24.008 25.9609 25.6766C27.9385 27.6542 28.2645 28.5413 29.3769 28.5413H32.2935C33.1269 28.5413 33.5435 28.1247 33.3032 27.3024C33.0401 26.4829 32.0959 25.2939 30.8431 23.8844C30.1633 23.081 29.1436 22.2158 28.8346 21.7832C28.402 21.227 28.5256 20.9798 28.8346 20.4854C28.8346 20.4854 32.3881 15.4796 32.7589 13.7801Z" fill="white"/>
</g>
<defs>
<clipPath id="clip0_2_11847">
<rect width="40" height="40" fill="white" transform="translate(0.00121307)"/>
</clipPath>
</defs>
</svg>
