<svg width="41" height="40" viewBox="0 0 41 40" fill="none" xmlns="http://www.w3.org/2000/svg">
<g clip-path="url(#clip0_2_11851)">
<path d="M37.1701 39.3107C38.3536 39.3107 39.2974 38.3515 39.2974 37.1825V2.81759C39.2974 1.63363 38.3386 0.689453 37.1701 0.689453H2.81802C1.64948 0.689453 0.690674 1.64861 0.690674 2.81759V37.1825C0.690674 38.3665 1.64948 39.3107 2.81802 39.3107H37.1701Z" fill="#157DC3"/>
<path d="M27.3276 39.3108V24.3539H32.3463L33.0954 18.524H27.3276V14.8073C27.3276 13.1138 27.792 11.9748 30.219 11.9748H33.3051V6.74433C32.7658 6.6694 30.9381 6.51953 28.8107 6.51953C24.3613 6.51953 21.3201 9.23216 21.3201 14.2228V18.524H16.2864V24.3539H21.3201V39.3108H27.3276Z" fill="white"/>
</g>
<defs>
<clipPath id="clip0_2_11851">
<rect width="40" height="40" fill="white" transform="translate(0.0012207)"/>
</clipPath>
</defs>
</svg>
